<?xml version="1.0" encoding="UTF-8"?>
<svg id="Vector_Smart_Object_Image" data-name="Vector Smart Object Image" xmlns="http://www.w3.org/2000/svg" viewBox="0 0 959 759">
  <path d="M959,0v759H0V0h959ZM883.14,314.86c-32.75-147.14-149.69-261.6-294.72-298.79C374.44-38.79,146.55,71.61,80.5,286c-1.45,4.7-5.6,25.01-7.01,26.99-1.23,1.72-18.77,3.64-23.04,4.96-33.85,10.51-46.6,45.99-48.5,78.5-1.95,33.51,1.1,73.25,4.53,106.55,3.95,16.04,12.44,27.71,25.79,37.21,25.74,18.31,45.86,12.81,75.18,11.74,13.08-.48,27,5.14,25.52-14.45-1.63-21.59-8.33-45.12-9.97-68.02-13.49-188.84,83.99-353.47,275.8-392.18,212.44-42.87,403.25,83.03,435.02,298.35,19.07,129.21-22.88,272.79-173.45,284.2-8.99.68-5.25.12-9.83-3.91-23.49-20.64-46.47-23.1-77.04-19.95-78.48,8.09-89.16,101.89-15.52,118.5,37.92,8.55,81.65-2.91,102.74-37.28,91.41-8.97,175.54-63.44,212.45-148.55,1.37-3.15,3.72-13.11,5.29-14.71,1.74-1.78,12.96-.83,16.75-1.25,35.5-3.95,57.45-34.53,60.77-68.23,2.84-28.84,2.48-70.99,0-99.98-3.21-37.49-33.15-72.35-72.85-69.65ZM429.79,331.29c-79.48,2.32-230.75,9.82-248.34,109.66-14.83,84.13,93.52,117.71,159.04,113.04,63.45-4.52,102.24-56.84,171.03-35.01,26.88,8.53,50.4,23.75,78.66,30.34,75.42,17.57,192.22-12.79,183.69-109.69-7.6-86.36-146.83-102.3-213.38-106.62-42.57-2.76-87.96-2.96-130.7-1.72Z" style="fill: #fff;"/>
  <path d="M883.14,314.86c39.7-2.7,69.63,32.16,72.85,69.65,2.49,28.99,2.84,71.14,0,99.98-3.32,33.71-25.27,64.29-60.77,68.23-3.79.42-15.01-.53-16.75,1.25-1.57,1.6-3.92,11.56-5.29,14.71-36.91,85.11-121.05,139.58-212.45,148.55-21.08,34.37-64.81,45.83-102.74,37.28-73.64-16.61-62.97-110.41,15.52-118.5,30.57-3.15,53.55-.69,77.04,19.95,4.58,4.03.85,4.59,9.83,3.91,150.57-11.41,192.52-154.99,173.45-284.2-31.77-215.33-222.58-341.22-435.02-298.35C207,116.02,109.52,280.65,123.01,469.49c1.64,22.9,8.34,46.43,9.97,68.02,1.48,19.58-12.44,13.97-25.52,14.45-29.32,1.07-49.44,6.57-75.18-11.74-13.35-9.5-21.84-21.17-25.79-37.21C3.06,469.71,0,429.97,1.96,396.46c1.9-32.51,14.65-68,48.5-78.5,4.27-1.33,21.8-3.24,23.04-4.96,1.41-1.97,5.57-22.28,7.01-26.99C146.55,71.61,374.44-38.79,588.42,16.08c145.03,37.18,261.97,151.64,294.72,298.79Z"/>
  <path d="M429.79,331.29c42.73-1.25,88.12-1.04,130.7,1.72,66.55,4.31,205.78,20.26,213.38,106.62,8.53,96.89-108.27,127.26-183.69,109.69-28.27-6.59-51.79-21.81-78.66-30.34-68.8-21.84-107.58,30.48-171.03,35.01-65.52,4.67-173.87-28.91-159.04-113.04,17.6-99.83,168.87-107.34,248.34-109.66ZM323.78,401.28c-48.11,6.17-52.08,102.36,2.84,107.6,65.56,6.25,68.28-116.71-2.84-107.6ZM621.8,401.29c-51,5.3-55.76,92.59-5.58,105.99,68.17,18.2,78.14-113.52,5.58-105.99Z"/>
  <path d="M621.8,401.29c72.56-7.54,62.59,124.19-5.58,105.99-50.19-13.4-45.43-100.69,5.58-105.99Z" style="fill: #fff;"/>
  <path d="M323.78,401.28c71.12-9.12,68.4,113.85,2.84,107.6-54.92-5.24-50.95-101.43-2.84-107.6Z" style="fill: #fff;"/>
</svg>