<?xml version="1.0" encoding="UTF-8"?>
<svg id="Layer_1" data-name="Layer 1" xmlns="http://www.w3.org/2000/svg" viewBox="0 0 936.32 735.33">
  <path d="M860.45,532.17c-2.64,2.55-7.23,18.35-9.39,23.1-37.09,81.55-119.65,134.71-208.7,139.8-15.88,35.19-61.22,46.17-96.17,37.35-32.66-8.25-50.48-40.05-32.8-70.81,13.21-22.99,36.54-27.82,61.32-28.68,24.97-.87,48.33,4.35,63.14,25.88,12.77-1.48,25.56-2.9,38.16-5.58,211.81-45,187.22-337.78,80.58-472.21C635.89,28.86,395.54,4.78,240.88,119.1c-113.83,84.14-153.04,221.85-137.56,359.19,1.99,17.65,6.39,35.02,7.87,52.62-5.13-1.13-10.3-1.19-15.54-1.04-23.87.7-44.03,6.28-65.78-7.14-20.14-12.42-27.33-31.29-28.67-54.33,3.76-43.49-14.9-113.31,24.51-144.47,14.45-11.42,28.27-9.1,44.22-15.28,24.61-116.85,106.82-218.72,214.9-268.6,215.85-99.62,478.42-8.38,563.11,217.61,6.49,17.33,8.91,32.24,13.7,49.3,2.35,8.36,13.27,5.17,20.03,5.97,29.23,3.45,50.1,31.35,52.5,59.5,2.48,29.16,3.59,80.48-1.09,108.88-3.93,23.86-26.05,46.92-50.52,49.48-4.66.49-19.66-1-22.13,1.38Z"/>
  <path d="M418.99,329.21c53.59-1.53,111.39-1.05,164.58,4.83s162.14,24.45,168.5,93.5c8.22,89.25-99.55,115.2-168.69,100.69-46-9.66-81.3-42.95-131.57-36.2-37.48,5.03-70.41,30.03-107.58,37.42-61.87,12.29-179.92-17.6-164.59-100.59,16.86-91.26,167.19-97.6,239.35-99.65ZM311.98,379.19c-61.43,6.93-65.24,122.01,2.85,127.59,78.68,6.46,81.02-137.05-2.85-127.59ZM609.99,379.21c-61.34,6.08-68.77,103.22-13.32,123.73,69.25,25.61,100.92-83.44,45.83-115.83-11.07-6.51-19.42-9.2-32.51-7.9Z"/>
</svg>